<?xml version="1.0" encoding="utf-8"?>

<!DOCTYPE svg PUBLIC "-//W3C//DTD SVG 1.1//EN" "http://www.w3.org/Graphics/SVG/1.1/DTD/svg11.dtd">
<!-- Uploaded to: SVG Repo, www.svgrepo.com, Generator: SVG Repo Mixer Tools -->
<svg height="800px" width="800px" version="1.1" id="_x32_" xmlns="http://www.w3.org/2000/svg" xmlns:xlink="http://www.w3.org/1999/xlink" 
	 viewBox="0 0 512 512"  xml:space="preserve">
<style type="text/css">
	.st0{fill:#000000;}
</style>
<g>
	<path class="st0" d="M224.324,383.89c13.242,6.727,28.219,10.524,44.09,10.524c43.113,0,79.691-27.922,92.679-66.657h-53.289
		c-7.094,14.321-21.871,24.165-38.922,24.165c-23.977,0-43.391-19.43-43.391-43.391h139.942c0.477-3.898,0.754-7.867,0.754-11.875
		c0-17.468-4.602-33.859-12.626-48.038c7.786-14.266,15.692-36.602,2.574-54.29c-13.992-18.851-51.844-13.023-87.449,4.57
		c-0.09,0-0.18-0.008-0.274-0.008c-42.707,0-78.996,27.414-92.313,65.586c12.371-10.125,26.703-20.734,39.633-27.562
		c-35.086,35.164-53.32,64.992-66.996,108.164C137.18,381.477,159.309,418.742,224.324,383.89z M348.031,204.805
		c1.012,0.672,1.989,1.406,2.894,2.344c5.918,7.046-1.793,20.281-6.922,27.554c-7.758-9.469-17.254-17.43-28.027-23.461
		C325.016,205.946,339.844,200.344,348.031,204.805z M268.883,240.914c22.73,0,41.363,17.476,43.23,39.75h-86.473
		C227.5,258.39,246.141,240.914,268.883,240.914z M180.457,338.164c6.989,17.157,17.13,28.578,31.063,37.766
		c-13.43,9.657-32.238,12.203-39.848,1.024C164.782,366.805,173.29,348.118,180.457,338.164z"/>
	<path class="st0" d="M464,0H48C21.492,0,0,21.492,0,48v416c0,26.508,21.492,48,48,48h416c26.508,0,48-21.492,48-48V48
		C512,21.492,490.508,0,464,0z M444.664,35c10.493,0,19,8.508,19,19s-8.507,19-19,19c-10.492,0-19-8.508-19-19
		S434.172,35,444.664,35z M374.164,35c10.493,0,19,8.508,19,19s-8.507,19-19,19c-10.492,0-19-8.508-19-19S363.672,35,374.164,35z
		 M303.664,35c10.493,0,19,8.508,19,19s-8.507,19-19,19c-10.492,0-19-8.508-19-19S293.172,35,303.664,35z M472,464
		c0,4.406-3.586,8-8,8H48c-4.414,0-8-3.594-8-8V104h432V464z"/>
</g>
</svg>